<?xml version="1.0" encoding="UTF-8"?>
<!DOCTYPE svg PUBLIC "-//W3C//DTD SVG 1.1//EN" "http://www.w3.org/Graphics/SVG/1.1/DTD/svg11.dtd">
<!-- Creator: CorelDRAW X8 -->
<svg xmlns="http://www.w3.org/2000/svg" xml:space="preserve" width="528px" height="528px" version="1.1" style="shape-rendering:geometricPrecision; text-rendering:geometricPrecision; image-rendering:optimizeQuality; fill-rule:evenodd; clip-rule:evenodd"
viewBox="0 0 304 304"
 xmlns:xlink="http://www.w3.org/1999/xlink">
 <defs>
  <style type="text/css">
   <![CDATA[
    .fil0 {fill:none}
    .fil4 {fill:#1F1A17}
    .fil2 {fill:#201A17}
    .fil1 {fill:#D23976}
    .fil3 {fill:#F6D352}
   ]]>
  </style>
 </defs>
 <g id="Layer_x0020_1">
  <metadata id="CorelCorpID_0Corel-Layer"/>
  <rect class="fil0" width="304" height="304"/>
  <g id="_2783642954272">
   <path class="fil1" d="M141 126c18,-3 36,7 40,20 5,18 -12,31 -27,33 -18,3 -35,-7 -39,-20 -5,-18 11,-30 26,-33zm-91 -21c2,19 8,40 9,59 0,26 -26,15 -45,12l4 25c9,3 39,3 49,0 22,-4 18,-20 19,-32 2,2 3,5 5,8 20,33 69,32 95,16 12,-7 15,-12 22,-24l0 34 77 0 5 -23c-21,2 -24,5 -50,5 0,-7 -1,-16 2,-23 10,-2 30,2 41,3l0 -22c-8,1 -41,5 -46,3 -1,-5 -1,-21 -1,-24 20,-2 33,1 51,3l-12 -24c-5,0 -11,2 -16,2 -21,3 -34,2 -54,1l1 31c-2,-2 -5,-8 -9,-13 -4,-4 -8,-7 -14,-10 -22,-11 -51,-11 -74,2 -17,9 -16,17 -22,23l1 -31 -38 -1z"/>
   <path class="fil2" d="M50 105l38 1 -1 31c6,-6 5,-14 22,-23 23,-13 52,-13 74,-2 6,3 10,6 14,10 4,5 7,11 9,13l-1 -31c20,1 33,2 54,-1 5,0 11,-2 16,-2l12 24c-18,-2 -31,-5 -51,-3 0,3 0,19 1,24 5,2 38,-2 46,-3l0 22c-11,-1 -31,-5 -41,-3 -3,7 -2,16 -2,23 26,0 29,-3 50,-5l-5 23 -77 0 0 -34c-7,12 -10,17 -22,24 -26,16 -75,17 -95,-16 -2,-3 -3,-6 -5,-8 -1,12 3,28 -19,32 -10,3 -40,3 -49,0l-4 -25c19,3 45,14 45,-12 -1,-19 -7,-40 -9,-59zm186 -5l-14 0c-8,0 -15,-1 -22,-1l0 19c-1,0 -3,-2 -4,-3 -6,-5 -10,-7 -17,-10 -26,-10 -59,-7 -82,11 -2,1 -3,3 -4,4l0 -18c-4,0 -7,-1 -11,-1 -5,0 -9,0 -13,0 -4,0 -7,0 -12,0 -4,0 -9,0 -13,0 0,3 1,6 1,10 2,12 11,51 8,60 -3,9 -23,3 -29,2l-16 -4 4 26c0,2 1,6 1,8 1,3 0,3 2,3 5,1 29,2 33,2 20,0 38,-4 42,-23 14,16 32,23 55,23 21,0 38,-5 53,-18 4,-3 4,-4 5,-5l0 23 86 0c0,-3 1,-7 2,-9l3 -17c1,-2 2,-6 2,-9 -4,1 -25,6 -37,6 -3,1 -13,1 -14,2 0,-16 -1,-14 7,-14 13,0 28,3 36,3l0 -32c-10,0 -32,4 -47,4l0 -15c17,0 27,0 44,3 3,1 8,2 11,2l-18 -36c-4,0 -6,1 -10,1 -10,2 -21,3 -32,3z"/>
   <path class="fil3" d="M141 131c-8,2 -12,4 -17,9 -15,15 3,39 31,34 12,-2 26,-13 21,-27 -4,-11 -19,-19 -35,-16z"/>
   <path class="fil4" d="M141 131c16,-3 31,5 35,16 5,14 -9,25 -21,27 -28,5 -46,-19 -31,-34 5,-5 9,-7 17,-9zm0 -5c-15,3 -31,15 -26,33 4,13 21,23 39,20 15,-2 32,-15 27,-33 -4,-13 -22,-23 -40,-20z"/>
  </g>
 </g>
</svg>
