<?xml version="1.0" encoding="UTF-8"?>
<!DOCTYPE svg PUBLIC "-//W3C//DTD SVG 1.1//EN" "http://www.w3.org/Graphics/SVG/1.1/DTD/svg11.dtd">
<!-- Creator: CorelDRAW X8 -->
<svg xmlns="http://www.w3.org/2000/svg" xml:space="preserve" width="502px" height="312px" version="1.1" style="shape-rendering:geometricPrecision; text-rendering:geometricPrecision; image-rendering:optimizeQuality; fill-rule:evenodd; clip-rule:evenodd"
viewBox="0 0 430 268"
 xmlns:xlink="http://www.w3.org/1999/xlink">
 <defs>
  <style type="text/css">
   <![CDATA[
    .fil0 {fill:#7688A1}
    .fil2 {fill:#D23976}
    .fil3 {fill:#F6D352}
    .fil1 {fill:black;fill-rule:nonzero}
   ]]>
  </style>
 </defs>
 <g id="Layer_x0020_1">
  <metadata id="CorelCorpID_0Corel-Layer"/>
  <path class="fil0" d="M208 169c-26,0 -47,-17 -47,-37 0,-21 21,-37 47,-37 27,0 48,16 48,37 0,20 -21,37 -48,37zm-85 -109l-66 -1c7,33 19,86 13,102 -6,18 -44,5 -65,0l6 47c73,10 111,-2 110,-37 36,57 138,49 173,0l0 40 120 0 11 -44c-28,7 -53,10 -76,9l1 -27c22,-3 39,3 64,5l0 -40c-30,3 -53,5 -70,4l-2 -29c17,-2 45,1 80,8l-22 -46c-38,6 -75,8 -111,5l3 38c-35,-53 -142,-46 -169,0l0 -34z"/>
  <path class="fil1" d="M48 262l0 -26 6 0c2,0 3,0 4,0 1,1 1,1 2,1 1,1 1,2 2,3 0,1 0,2 0,3 0,2 0,4 -1,5 -2,1 -3,2 -6,2l0 0 10 12 -4 0 -10 -12 0 0 0 12 -3 0zm3 -23l0 8 2 0c3,0 4,0 5,-1 1,0 1,-1 1,-3 0,-1 0,-3 -1,-3 -1,-1 -2,-1 -5,-1l-2 0zm41 3l-4 9 8 0 -4 -9zm0 -7l12 27 -4 0 -3 -8 -10 0 -3 8 -4 0 12 -27zm34 24l2 0c3,0 5,0 7,-1 1,0 2,0 3,-1 1,-1 1,-2 2,-3 1,-2 1,-3 1,-5 0,-2 0,-3 -1,-5 -1,-1 -1,-2 -2,-3 -1,-1 -2,-1 -3,-2 -2,0 -4,0 -7,0l-2 0 0 20zm-3 3l0 -26 5 0c4,0 6,0 8,1 1,0 2,1 4,2 1,1 2,2 3,4 1,2 1,4 1,6 0,2 0,4 -1,6 -1,2 -2,3 -3,4 -2,1 -3,2 -4,2 -2,1 -4,1 -7,1l-1 0 -5 0zm43 0l0 -26 3 0 0 26 -3 0zm38 -2c2,0 3,-1 4,-1 2,-1 3,-2 4,-3 1,-1 1,-2 2,-3 1,-1 1,-3 1,-4 0,-1 0,-3 -1,-4 -1,-1 -1,-3 -2,-3 -1,-1 -2,-2 -4,-3 -1,0 -2,-1 -4,-1 -1,0 -2,1 -4,1 -1,1 -2,2 -3,3 -1,1 -2,2 -2,3 -1,1 -1,3 -1,4 0,1 0,3 1,4 0,1 1,2 2,3 1,1 2,2 3,3 2,0 3,1 4,1zm14 -11c0,2 0,4 -1,5 -1,2 -2,3 -3,4 -1,2 -3,3 -4,3 -2,1 -4,1 -6,1 -1,0 -3,0 -5,-1 -2,0 -3,-1 -4,-3 -2,-1 -3,-2 -3,-4 -1,-1 -1,-3 -1,-5 0,-2 0,-4 1,-5 0,-2 1,-3 3,-4 1,-2 2,-3 4,-3 2,-1 4,-1 5,-1 2,0 4,0 6,1 1,0 3,1 4,3 1,1 2,2 3,4 1,1 1,3 1,5zm58 -5c0,-2 -1,-3 -2,-4 -1,-1 -2,-2 -4,-2 -1,0 -3,1 -4,2 -1,1 -1,2 -1,4 0,2 0,3 1,4 1,1 3,2 4,2 2,0 3,-1 4,-2 1,-1 2,-2 2,-4zm-3 7c0,0 -1,1 -1,1 -1,0 -2,0 -2,0 -3,0 -5,-1 -6,-2 -1,-1 -2,-3 -2,-6 0,-2 1,-4 2,-6 2,-1 4,-2 7,-2 2,0 4,1 5,2 2,2 3,4 3,6 0,3 -2,6 -5,11l0 0 -6 8 -3 -1 8 -11zm35 11c-2,0 -5,-1 -6,-3 -2,-3 -3,-6 -3,-10 0,-4 1,-7 3,-9 1,-3 4,-4 6,-4 3,0 5,1 7,3 1,3 2,6 2,10 0,4 -1,7 -2,10 -2,2 -4,3 -7,3zm0 -2c2,0 4,-1 5,-3 1,-2 1,-4 1,-8 0,-3 0,-6 -1,-8 -1,-2 -3,-3 -5,-3 -1,0 -3,1 -4,3 -1,2 -1,5 -1,8 0,3 0,6 1,8 1,2 3,3 4,3zm30 7l3 -10 3 1 -4 10 -2 -1zm27 -12l3 0 0 0c0,2 1,3 1,4 1,0 2,1 4,1 2,0 3,-1 4,-1 1,-1 1,-3 1,-4 0,-2 0,-3 -1,-4 -1,-1 -3,-1 -4,-1 -1,0 -1,0 -1,0 0,0 0,0 0,0l0 -3c0,0 0,0 0,0 0,0 0,0 0,0 2,0 4,0 4,-1 1,-1 2,-2 2,-3 0,-1 -1,-3 -1,-3 -1,-1 -2,-2 -4,-2 -1,0 -2,1 -3,2 -1,0 -1,1 -2,3l-3 0c1,-2 1,-4 3,-5 1,-2 3,-2 5,-2 3,0 5,1 6,2 1,1 2,3 2,5 0,1 0,2 -1,4 -1,1 -2,1 -4,2 2,0 3,1 4,2 1,1 1,2 1,4 0,2 0,4 -2,5 -1,2 -4,2 -6,2 -3,0 -5,0 -6,-1 -1,-2 -2,-3 -2,-5l0 -1z"/>
  <path class="fil2" d="M57 59l66 1 0 34c27,-46 134,-53 169,0l-3 -38c36,3 73,1 111,-5l22 46c-35,-7 -63,-10 -80,-8l2 29c17,1 40,-1 70,-4l0 40c-25,-2 -42,-8 -64,-5l-1 27c23,1 48,-2 76,-9l-11 44 -120 0 0 -40c-35,49 -137,57 -173,0 1,35 -37,47 -110,37l-6 -47c21,5 59,18 65,0 6,-16 -6,-69 -13,-102z"/>
  <path class="fil1" d="M57 55l70 1 0 27c4,-5 9,-9 14,-12 17,-11 39,-17 62,-18 23,-1 47,4 65,15 7,4 14,9 19,15l-2 -31 5 1c17,1 35,1 53,0 19,-1 37,-3 56,-6l3 0 27 55 -8 -2c-17,-3 -33,-6 -46,-7 -12,-1 -21,-1 -29,-1l2 23c7,0 16,-1 26,-1 11,-1 25,-2 39,-4l4 0 0 48 -4 -1c-9,0 -17,-1 -25,-2 -11,-2 -22,-4 -34,-2l-1 20c10,0 21,-1 32,-2 12,-2 25,-5 39,-8l6 -2 -13 54 -127 0 0 -34c-5,6 -11,11 -18,15 -19,12 -42,18 -66,19 -24,0 -47,-6 -66,-19l0 0c-6,-4 -12,-9 -16,-15 -3,14 -13,24 -29,29 -19,6 -47,7 -84,2l-3 -1 -8 -55 5 1c3,1 6,2 9,3 21,5 48,12 53,0 4,-14 -5,-58 -11,-91l-3 -14 4 0zm62 8l-57 -1 1 5c7,34 16,80 11,95 -7,19 -38,11 -62,5l-3 -1 6 39c34,4 60,4 77,-2 17,-6 25,-16 25,-32l0 -14 7 12c5,8 12,15 20,21 18,12 40,17 62,17 22,0 45,-6 62,-17 9,-6 17,-13 23,-22l7 -9 0 48 113 0 9 -35c-12,3 -23,5 -34,6 -13,2 -26,2 -37,2l-4 0 2 -34 3 -1c14,-2 26,0 40,2 6,1 13,2 20,3l0 -32c-13,2 -25,3 -36,3 -11,1 -21,1 -30,1l-3 0 -3 -36 4 -1c8,-1 20,-1 34,1 11,1 24,3 39,5l-17 -36c-19,3 -37,5 -54,6 -17,0 -34,0 -51,-1l3 48 -8 -12c-6,-9 -14,-16 -23,-22 -18,-10 -40,-14 -61,-14 -22,1 -43,7 -59,17 -8,5 -14,12 -18,19l-8 12 0 -45z"/>
  <path class="fil0" d="M256 132c0,-21 -21,-37 -48,-37 -26,0 -47,16 -47,37 0,20 21,37 47,37 27,0 48,-17 48,-37z"/>
  <ellipse class="fil3" cx="208" cy="132" rx="48" ry="37"/>
  <path class="fil1" d="M208 91c14,0 27,4 36,12 10,7 16,17 16,29 0,11 -6,21 -16,29 -9,7 -22,11 -36,11 -14,0 -26,-4 -36,-11 -9,-8 -15,-18 -15,-29 0,-12 6,-22 15,-29 10,-8 22,-12 36,-12zm32 17c-8,-6 -19,-10 -32,-10 -12,0 -23,4 -31,10 -8,6 -12,15 -12,24 0,9 4,17 12,23 8,6 19,10 31,10 13,0 24,-4 32,-10 8,-6 12,-14 12,-23 0,-9 -4,-18 -12,-24z"/>
  <path class="fil1" d="M39 149l-35 0 0 -8 28 0 0 -15 7 0 0 23zm0 -34l-35 0 0 -9 35 0 0 9zm0 -22l-35 0 0 -8 14 -11 -14 -11 0 -7 35 0 0 8 -22 0 13 10 -13 10 22 0 0 9z"/>
  <path class="fil1" d="M12 29c0,3 1,5 3,7 1,2 4,3 7,3 2,0 5,-1 7,-3 1,-2 2,-4 2,-7 0,-3 -1,-6 -2,-8 -2,-2 -5,-3 -7,-3 -3,0 -6,1 -7,3 -2,2 -3,5 -3,8zm-9 0c0,-3 0,-5 1,-7 1,-2 3,-4 4,-6 2,-2 4,-3 6,-4 2,0 5,-1 8,-1 2,0 5,1 7,1 2,1 4,2 6,4 2,2 3,4 4,6 1,2 1,4 1,7 0,2 0,5 -1,7 -1,2 -2,4 -4,6 -2,1 -4,2 -6,3 -2,1 -5,2 -7,2 -3,0 -6,-1 -8,-2 -2,-1 -4,-2 -6,-3 -1,-2 -3,-4 -4,-6 -1,-2 -1,-5 -1,-7zm57 -5l0 22 -8 0 0 -34 7 0 19 20 0 -20 8 0 0 34 -6 0 -20 -22zm50 9l10 0 -5 -13 -5 13zm-15 13l15 -34 10 0 13 34 -9 0 -2 -7 -15 0 -3 7 -9 0zm17 -38l5 -8 5 0 -7 8 -3 0zm39 11l0 20 6 0c3,0 6,-1 8,-3 1,-2 2,-4 2,-7 0,-3 -1,-6 -2,-7 -2,-2 -5,-3 -8,-3l-6 0zm-8 27l0 -34 12 0c4,0 7,0 9,1 2,0 4,1 5,2 3,2 4,4 5,6 2,3 2,5 2,8 0,3 -1,6 -2,8 -1,3 -3,5 -6,6 -1,1 -3,2 -5,2 -2,1 -4,1 -8,1l-12 0zm52 -17c0,3 1,5 3,7 2,2 4,3 7,3 3,0 5,-1 7,-3 2,-2 3,-4 3,-7 0,-3 -1,-6 -3,-8 -2,-2 -4,-3 -7,-3 -3,0 -5,1 -7,3 -2,2 -3,5 -3,8zm-9 0c0,-3 1,-5 2,-7 0,-2 2,-4 4,-6 1,-2 3,-3 5,-4 3,0 5,-1 8,-1 2,0 5,1 7,1 2,1 4,2 6,4 2,2 3,4 4,6 1,2 1,4 1,7 0,2 0,5 -1,7 -1,2 -2,4 -4,6 -2,1 -4,2 -6,3 -2,1 -5,2 -7,2 -3,0 -5,-1 -8,-2 -2,-1 -4,-2 -5,-3 -2,-2 -3,-4 -4,-6 -1,-2 -2,-5 -2,-7zm59 17l-15 -34 9 0 9 20 9 -20 9 0 -17 34 -4 0zm39 0l0 -16 -13 -18 10 0 7 11 8 -11 10 0 -13 18 0 16 -9 0zm1 -38l5 -8 5 0 -7 8 -3 0z"/>
 </g>
</svg>
