<?xml version="1.0" encoding="UTF-8"?>
<!DOCTYPE svg PUBLIC "-//W3C//DTD SVG 1.1//EN" "http://www.w3.org/Graphics/SVG/1.1/DTD/svg11.dtd">
<!-- Creator: CorelDRAW X8 -->
<svg xmlns="http://www.w3.org/2000/svg" xml:space="preserve" width="499px" height="326px" version="1.1" style="shape-rendering:geometricPrecision; text-rendering:geometricPrecision; image-rendering:optimizeQuality; fill-rule:evenodd; clip-rule:evenodd"
viewBox="0 0 427 279"
 xmlns:xlink="http://www.w3.org/1999/xlink">
 <defs>
  <style type="text/css">
   <![CDATA[
    .fil3 {fill:#1F1A17}
    .fil1 {fill:#201A17}
    .fil4 {fill:#201B18}
    .fil5 {fill:#211C18}
    .fil0 {fill:#D23976}
    .fil2 {fill:#F6D352}
    .fil6 {fill:#2B2A29;fill-rule:nonzero}
   ]]>
  </style>
 </defs>
 <g id="Layer_x0020_1">
  <metadata id="CorelCorpID_0Corel-Layer"/>
  <g id="_2783575549424">
   <g id="_2233538755424">
    <path class="fil0" d="M197 100c27,-5 53,10 58,30 8,26 -17,45 -38,48 -28,5 -53,-10 -59,-30 -7,-27 16,-44 39,-48zm-136 -31c3,28 13,59 13,87 1,38 -37,22 -66,17l6 38c14,4 58,4 72,0 33,-7 28,-31 29,-48 3,3 5,8 7,12 30,48 104,47 141,24 18,-11 23,-18 34,-36l-1 50 115 0 6 -34c-30,3 -35,8 -73,9 -1,-11 -1,-25 2,-35 16,-3 45,3 62,4l0 -32c-13,1 -61,7 -69,3 -1,-6 -2,-30 -1,-34 29,-3 49,1 76,4l-18 -35c-7,0 -17,2 -25,3 -30,3 -50,2 -80,1l3 46c-3,-3 -8,-12 -15,-19 -6,-6 -11,-10 -19,-15 -34,-17 -77,-16 -110,2 -26,14 -25,25 -33,34l1 -45 -57 -1z"/>
    <path class="fil1" d="M61 69l57 1 -1 45c8,-9 7,-20 33,-34 33,-18 76,-19 110,-2 8,5 13,9 19,15 7,7 12,16 15,19l-3 -46c30,1 50,2 80,-1 8,-1 18,-3 25,-3l18 35c-27,-3 -47,-7 -76,-4 -1,4 0,28 1,34 8,4 56,-2 69,-3l0 32c-17,-1 -46,-7 -62,-4 -3,10 -3,24 -2,35 38,-1 43,-6 73,-9l-6 34 -115 0 1 -50c-11,18 -16,25 -34,36 -37,23 -111,24 -141,-24 -2,-4 -4,-9 -7,-12 -1,17 4,41 -29,48 -14,4 -58,4 -72,0l-6 -38c29,5 67,21 66,-17 0,-28 -10,-59 -13,-87zm277 -8l-22 0c-12,0 -21,-2 -32,-2l1 29c-2,-1 -5,-4 -7,-6 -9,-7 -14,-9 -25,-14 -38,-15 -88,-10 -121,16 -3,2 -4,5 -7,7l1 -28c-7,0 -10,-1 -17,-1 -7,0 -13,1 -19,1 -6,-1 -11,-1 -18,-1 -6,0 -13,0 -19,0 0,5 1,10 2,15 3,17 15,75 11,88 -4,14 -34,6 -42,4l-24 -6 5 39c1,3 1,8 2,12 1,4 0,3 3,4 7,2 42,4 49,4 30,0 56,-6 62,-36 21,24 47,36 82,36 31,0 56,-9 78,-27 6,-5 7,-7 8,-8l0 34 127 0c1,-4 2,-10 3,-13l5 -26c1,-3 3,-9 3,-13 -6,1 -38,8 -56,10 -4,0 -18,0 -20,2 0,-24 -1,-21 11,-21 19,0 42,5 53,5l0 -48c-15,0 -48,5 -70,5l0 -22c26,0 41,1 66,6 5,1 11,2 16,3l-27 -54c-6,0 -9,1 -15,2 -15,2 -32,4 -47,4z"/>
    <path class="fil2" d="M197 107c-12,2 -19,6 -25,13 -23,23 4,58 45,51 18,-3 39,-19 31,-41 -6,-16 -27,-28 -51,-23z"/>
    <path class="fil3" d="M197 107c24,-5 45,7 51,23 8,22 -13,38 -31,41 -41,7 -68,-28 -45,-51 6,-7 13,-11 25,-13zm0 -7c-23,4 -46,21 -39,48 6,20 31,35 59,30 21,-3 46,-22 38,-48 -5,-20 -31,-35 -58,-30z"/>
    <path class="fil4" d="M2 75l24 9 -19 7c-6,2 -5,-1 -5,13l36 0c4,0 3,-2 3,-7 0,-5 -10,-3 -19,-3 0,0 1,0 1,0l1 -1c14,-6 17,-2 17,-11 0,-2 -2,-3 -3,-3 -3,-1 -4,-2 -6,-2 -3,-1 -8,-3 -11,-4l20 0 0 -10 -39 0 0 12z"/>
    <path class="fil4" d="M49 52c13,0 10,3 10,-21l3 5c2,2 3,4 4,6 1,2 2,3 3,5 3,6 2,5 12,5l0 -39 -9 0 0 22 -3 -5c-2,-3 -2,-4 -4,-6 -1,-3 -2,-4 -3,-6 -3,-6 -3,-5 -13,-5l0 39z"/>
    <path class="fil3" d="M190 33c0,-15 21,-15 21,0 0,13 -21,15 -21,0zm10 20c28,0 27,-41 1,-41 -19,0 -27,22 -16,34 3,3 10,7 15,7z"/>
    <path class="fil3" d="M10 33c0,-16 22,-13 22,-2 0,18 -22,15 -22,2zm-9 -2c0,31 40,26 40,3 0,-7 -1,-12 -7,-17 -15,-12 -33,0 -33,14z"/>
    <path class="fil4" d="M149 43l0 -21c7,0 14,2 12,12 -1,7 -5,9 -12,9zm-11 9l13 0c12,0 20,-8 20,-19 0,-12 -8,-20 -20,-20l-13 0 0 39z"/>
    <path class="fil4" d="M109 29l2 0c0,2 1,2 1,4l-3 0c0,-2 0,-2 0,-4zm-5 -22c1,10 7,-4 -4,22l-9 23 10 0c1,-3 2,-5 3,-9l12 0c1,4 3,6 4,9l10 0 -15 -37c-2,-3 -3,-2 -5,-3l11 -5c-1,-3 -2,-4 -3,-7 -6,1 -9,6 -14,7z"/>
    <path class="fil3" d="M241 52l8 0c5,-10 10,-29 15,-39l-10 0c-2,3 -3,8 -4,12 -2,3 -4,9 -5,13 -1,-3 -8,-23 -8,-25l-10 0c0,3 2,7 3,9l11 30z"/>
    <path class="fil3" d="M281 39l0 13 10 0c0,-16 -1,-11 6,-25 2,-5 6,-10 7,-14l-11 0c-2,4 -4,12 -7,14 -2,-5 -5,-9 -6,-14l-12 0c3,4 13,22 13,26z"/>
    <polygon class="fil3" points="32,147 2,147 2,157 41,157 41,136 32,136 "/>
    <path class="fil5" d="M2 127l36 0c4,0 3,-3 3,-8 0,-2 -1,-3 -3,-3l-36 0 0 11z"/>
    <path class="fil5" d="M280 8c1,2 2,3 3,6l15 -7c-2,-2 -3,-4 -4,-7 -3,1 -10,5 -14,8z"/>
    <path class="fil6" d="M47 273l0 -25 6 0c1,0 3,0 3,0 1,0 2,0 2,1 1,1 2,1 2,2 1,1 1,2 1,4 0,2 -1,3 -2,4 -1,1 -3,2 -5,2l-1 0 10 12 -4 0 -9 -12 -1 0 0 12 -2 0zm2 -23l0 9 3 0c2,0 4,-1 5,-1 0,-1 1,-2 1,-3 0,-2 -1,-3 -1,-4 -1,0 -3,-1 -5,-1l-3 0zm42 3l-5 10 9 0 -4 -10zm0 -6l11 26 -3 0 -3 -8 -10 0 -4 8 -3 0 12 -26zm34 23l2 0c3,0 5,0 6,0 1,0 2,-1 3,-2 1,0 2,-2 2,-3 1,-1 1,-3 1,-5 0,-1 0,-3 -1,-4 0,-2 -1,-3 -2,-4 -1,0 -2,-1 -3,-1 -1,0 -3,-1 -6,-1l-2 0 0 20zm-3 3l0 -25 4 0c4,0 7,0 8,0 2,0 3,1 4,2 2,1 3,3 3,4 1,2 1,4 1,6 0,3 0,5 -1,6 0,2 -1,4 -3,5 -1,1 -2,1 -4,2 -1,0 -3,0 -6,0l-2 0 -4 0zm42 0l0 -25 3 0 0 25 -3 0zm39 -2c1,0 2,0 4,-1 1,0 2,-1 3,-2 1,-1 2,-2 2,-4 1,-1 1,-2 1,-4 0,-1 0,-2 -1,-4 0,-1 -1,-2 -2,-3 -1,-1 -2,-2 -3,-2 -2,-1 -3,-1 -4,-1 -2,0 -3,0 -4,1 -2,0 -3,1 -4,2 -1,1 -1,2 -2,3 0,2 -1,3 -1,4 0,2 1,3 1,4 1,2 1,3 2,4 1,1 2,2 4,2 1,1 2,1 4,1zm13 -11c0,2 0,4 -1,6 0,1 -1,3 -3,4 -1,1 -2,2 -4,3 -2,0 -3,1 -5,1 -2,0 -4,-1 -6,-1 -1,-1 -3,-2 -4,-3 -1,-1 -2,-3 -3,-4 -1,-2 -1,-4 -1,-6 0,-1 0,-3 1,-5 1,-1 2,-3 3,-4 1,-1 3,-2 4,-3 2,-1 4,-1 6,-1 2,0 3,0 5,1 2,1 3,2 4,3 2,1 3,3 3,4 1,2 1,4 1,5zm58 -5c0,-1 -1,-3 -2,-4 -1,-1 -2,-1 -4,-1 -1,0 -2,0 -3,1 -1,1 -2,3 -2,4 0,2 1,4 2,5 1,1 2,1 4,1 1,0 2,0 3,-1 1,-2 2,-3 2,-5zm-2 7c-1,1 -1,1 -2,1 -1,1 -1,1 -2,1 -2,0 -4,-1 -6,-3 -1,-1 -2,-3 -2,-5 0,-3 1,-5 3,-6 1,-2 3,-3 6,-3 2,0 4,1 6,3 1,1 2,3 2,6 0,2 -2,6 -5,10l0 0 -6 8 -2 -1 8 -11zm35 12c-3,0 -5,-1 -7,-4 -2,-2 -2,-5 -2,-9 0,-5 0,-8 2,-10 2,-3 4,-4 6,-4 3,0 5,1 7,4 2,2 2,5 2,10 0,4 0,7 -2,9 -2,3 -4,4 -6,4zm-1 -3c2,0 4,-1 5,-3 1,-1 1,-4 1,-7 0,-4 0,-7 -1,-8 -1,-2 -3,-3 -5,-3 -1,0 -3,1 -4,3 -1,1 -1,4 -1,8 0,3 0,6 1,7 1,2 3,3 4,3zm30 7l3 -9 3 1 -4 9 -2 -1zm27 -11l3 0 0 0c0,1 1,2 1,3 1,1 3,1 4,1 2,0 3,0 4,-1 1,-1 1,-2 1,-4 0,-1 0,-3 -1,-3 -1,-1 -2,-2 -4,-2 -1,0 -1,0 -1,0 0,0 0,0 0,0l0 -2c0,0 0,0 0,0 0,0 1,0 1,0 1,0 3,-1 4,-1 0,-1 1,-2 1,-4 0,-1 0,-2 -1,-3 -1,-1 -2,-1 -4,-1 -1,0 -2,0 -3,1 -1,1 -1,2 -1,3l-3 0c0,-2 0,-4 2,-5 1,-1 3,-2 6,-2 2,0 4,1 5,2 1,1 2,3 2,5 0,2 0,3 -1,4 -1,1 -2,2 -3,2 1,0 2,1 3,2 1,1 1,3 1,4 0,3 0,5 -2,6 -1,1 -3,2 -6,2 -2,0 -4,-1 -6,-2 -1,-1 -2,-3 -2,-5l0 0z"/>
   </g>
  </g>
 </g>
</svg>
